<?xml version="1.0" standalone="no"?>
<!DOCTYPE svg PUBLIC "-//W3C//DTD SVG 20010904//EN"
 "http://www.w3.org/TR/2001/REC-SVG-20010904/DTD/svg10.dtd">
<svg version="1.0" xmlns="http://www.w3.org/2000/svg"
 width="171.000000pt" height="170.000000pt" viewBox="0 0 171.000000 170.000000"
 preserveAspectRatio="xMidYMid meet">
<metadata>
Created by potrace 1.16, written by Peter Selinger 2001-2019
</metadata>
<g transform="translate(0.000000,170.000000) scale(0.100000,-0.100000)"
fill="#000000" stroke="none">
<path d="M968 1230 c-48 -14 -96 -50 -119 -87 l-22 -35 -34 40 c-41 50 -91 69
-130 50 -40 -19 -67 -73 -67 -134 0 -83 48 -167 167 -291 125 -129 131 -133
134 -82 3 55 41 121 127 224 84 101 108 142 108 190 0 86 -84 150 -164 125z"/>
</g>
</svg>
